<svg xmlns="http://www.w3.org/2000/svg" width="20" height="20" viewBox="0 0 20 20"><defs><style>.a{fill:#e10f5a;}.b{fill:#51c7cf;}.c{fill:#1bb484;}.d{fill:#eaa026;}</style></defs><path class="a" d="M36.2,270.1a2.1,2.1,0,1,1-2.1-2.1h2.1Z" transform="translate(-32 -257.464)"/><path class="a" d="M149.84,270.141a2.1,2.1,0,0,1,4.2,0V275.4a2.1,2.1,0,1,1-4.2,0Z" transform="translate(-144.579 -257.503)"/><path class="b" d="M151.979,36.2a2.1,2.1,0,1,1,2.1-2.1v2.1Z" transform="translate(-144.617 -32)"/><path class="b" d="M39.362,149.84a2.1,2.1,0,1,1,0,4.2H34.1a2.1,2.1,0,0,1,0-4.2Z" transform="translate(-32 -144.579)"/><path class="c" d="M385.88,151.979a2.1,2.1,0,1,1,2.1,2.1h-2.1Z" transform="translate(-370.082 -144.618)"/><path class="c" d="M272.242,39.362a2.1,2.1,0,1,1-4.2,0V34.1a2.1,2.1,0,1,1,4.2,0Z" transform="translate(-257.503 -32)"/><path class="d" d="M270.1,385.88a2.1,2.1,0,1,1-2.1,2.1v-2.1Z" transform="translate(-257.464 -370.082)"/><path class="d" d="M270.141,272.242a2.1,2.1,0,0,1,0-4.2H275.4a2.1,2.1,0,1,1,0,4.2Z" transform="translate(-257.503 -257.503)"/></svg>