<svg xmlns="http://www.w3.org/2000/svg" xmlns:xlink="http://www.w3.org/1999/xlink" width="32" height="32" viewBox="0 0 32 32"><defs><style>.a{fill:#fff;}.b{clip-path:url(#a);}.c{fill:#63f;}</style><clipPath id="a"><circle class="a" cx="16" cy="16" r="16" transform="translate(523 204)"/></clipPath></defs><g class="b" transform="translate(-523 -204)"><path class="c" d="M34.443,12.509v.518a.977.977,0,0,0-.021.113c-.011.18-.018.359-.031.539a7.768,7.768,0,0,1-.948,3.14,5.769,5.769,0,0,1-1.838,1.964A6.175,6.175,0,0,1,28.372,19.8a7.258,7.258,0,0,1-1.566-.094,6.141,6.141,0,0,1-1.59-.5,5.875,5.875,0,0,1-2.36-2.037,6.966,6.966,0,0,1-.889-1.915,8.14,8.14,0,0,1-.32-1.836c-.018-.278-.014-.557-.019-.837,0-.07,0-.14,0-.211.008-.14.018-.281.027-.421a.562.562,0,0,0,0-.094,6.935,6.935,0,0,0-.123-.74,4.4,4.4,0,0,0-.559-1.393,2.866,2.866,0,0,0-1.19-1.091A3.1,3.1,0,0,0,18.5,8.345a3.383,3.383,0,0,0-.853.089,2.674,2.674,0,0,0-1.337.759,3.549,3.549,0,0,0-.736,1.155,5.836,5.836,0,0,0-.392,2.023c-.006.169,0,.339,0,.508a6.236,6.236,0,0,0,.052.795,5.712,5.712,0,0,0,.184.919,3.919,3.919,0,0,0,.828,1.553,2.7,2.7,0,0,0,.9.664,3.107,3.107,0,0,0,1.238.261,3.418,3.418,0,0,0,.677-.057,2.718,2.718,0,0,0,1.3-.6,3.2,3.2,0,0,0,.718-.9c.035-.063.069-.126.11-.2a7.368,7.368,0,0,0,1.435,2.875.126.126,0,0,1-.015.029,4.075,4.075,0,0,1-.366.327,5.908,5.908,0,0,1-1.847.918,6.626,6.626,0,0,1-1.616.264,7.3,7.3,0,0,1-1.024-.024,7.385,7.385,0,0,1-.8-.121,5.989,5.989,0,0,1-1.7-.65,5.772,5.772,0,0,1-1.558-1.281,6.747,6.747,0,0,1-1.361-2.633,8.226,8.226,0,0,1-.223-1.126,9.024,9.024,0,0,1-.071-.912,9.635,9.635,0,0,1,.041-1.227c.027-.275.063-.549.117-.819A7.231,7.231,0,0,1,13,8.717a5.907,5.907,0,0,1,1.824-1.979,6.237,6.237,0,0,1,3.325-1.051,7.235,7.235,0,0,1,.946.027,6.594,6.594,0,0,1,.773.113,6.072,6.072,0,0,1,2.187.915,5.77,5.77,0,0,1,1.173,1.064,6.385,6.385,0,0,1,.9,1.426,7.474,7.474,0,0,1,.643,2.31c.033.284.052.571.063.857a8.342,8.342,0,0,1-.022.985,1.253,1.253,0,0,0,0,.242q.029.248.072.495a4.608,4.608,0,0,0,.5,1.458,3.144,3.144,0,0,0,.82.986,2.834,2.834,0,0,0,1.64.579,3.494,3.494,0,0,0,.864-.06,2.687,2.687,0,0,0,1.356-.7,3.6,3.6,0,0,0,.889-1.427,5.993,5.993,0,0,0,.325-1.8c.012-.3,0-.6-.01-.907a5.468,5.468,0,0,0-.11-.9,4.511,4.511,0,0,0-.518-1.426,3.182,3.182,0,0,0-.723-.867,2.835,2.835,0,0,0-1.7-.624,3.509,3.509,0,0,0-.864.059A2.709,2.709,0,0,0,25.8,9.38a3.609,3.609,0,0,0-.463.677c-.009.017-.022.032-.04.059a7.359,7.359,0,0,0-1.431-2.873c.028-.02.053-.035.074-.054A5.757,5.757,0,0,1,25.5,6.243a6.347,6.347,0,0,1,2.292-.468,7.684,7.684,0,0,1,1.055.037,6.645,6.645,0,0,1,1.043.2,6.029,6.029,0,0,1,1.782.823,5.842,5.842,0,0,1,1.877,2.126,7.261,7.261,0,0,1,.681,1.843,7.974,7.974,0,0,1,.157.979c.02.2.023.411.036.616a.718.718,0,0,0,.026.109Z" transform="translate(515.973 207.274)"/></g></svg>