<svg xmlns="http://www.w3.org/2000/svg" width="14.471" height="8.269" viewBox="0 0 14.471 8.269"><defs><style>.a{fill:#fff;}</style></defs><path class="a" d="M45.522,128.827a.552.552,0,0,0-.3.087l-2.794,1.764a.276.276,0,0,0-.129.233v2.455a.276.276,0,0,0,.129.233l2.794,1.764a.581.581,0,0,0,.3.087h.672a.275.275,0,0,0,.278-.275V129.1a.277.277,0,0,0-.278-.275ZM39.8,136.269H33.664A1.669,1.669,0,0,1,32,134.609V129.66A1.666,1.666,0,0,1,33.66,128H39.8a1.666,1.666,0,0,1,1.66,1.66v4.945A1.662,1.662,0,0,1,39.8,136.269Z" transform="translate(-32 -128)"/></svg>