<svg xmlns="http://www.w3.org/2000/svg" width="21" height="12" viewBox="0 0 21 12"><defs><style>.a{fill:#006cff;}</style></defs><path class="a" d="M51.622,129.2a.8.8,0,0,0-.436.127l-4.055,2.559a.4.4,0,0,0-.187.337v3.562a.4.4,0,0,0,.188.338l4.055,2.559a.843.843,0,0,0,.436.127H52.6a.4.4,0,0,0,.4-.4V129.6a.4.4,0,0,0-.4-.4ZM43.32,140H34.414A2.422,2.422,0,0,1,32,137.591v-7.181A2.418,2.418,0,0,1,34.409,128h8.906a2.418,2.418,0,0,1,2.409,2.409v7.177A2.412,2.412,0,0,1,43.32,140Z" transform="translate(-32 -128)"/></svg>